<svg width="24" height="24" viewBox="0 0 24 24" fill="none" xmlns="http://www.w3.org/2000/svg">
<path d="M8.07532 7.25993L8.17032 7.34293L16.6563 15.8279C16.7675 15.939 16.851 16.0748 16.8999 16.2242C16.9488 16.3736 16.9619 16.5325 16.9379 16.6878C16.9139 16.8432 16.8537 16.9907 16.762 17.1185C16.6703 17.2462 16.5499 17.3505 16.4103 17.4229L16.2943 17.4729L5.90932 21.2999C3.95732 22.0199 2.05632 20.1849 2.64932 18.2359L2.69932 18.0899L6.52532 7.70493C6.5759 7.56737 6.65611 7.4426 6.76026 7.33947C6.8644 7.23634 6.98995 7.15736 7.12801 7.10813C7.26606 7.0589 7.41325 7.04062 7.55916 7.05458C7.70506 7.06855 7.84611 7.11441 7.97232 7.18893L8.07532 7.25993ZM17.1063 11.6039C18.0173 11.6519 19.2663 11.8439 20.3523 12.4959C20.5725 12.6265 20.7342 12.8364 20.8042 13.0826C20.8742 13.3288 20.8472 13.5925 20.7286 13.8193C20.6101 14.0461 20.4091 14.2189 20.167 14.302C19.9249 14.3851 19.6602 14.3722 19.4273 14.2659L19.3233 14.2109C18.6413 13.8009 17.7693 13.6409 17.0013 13.6009C16.6849 13.5834 16.3676 13.5848 16.0513 13.6049L15.7353 13.6359C15.4745 13.6696 15.2108 13.5991 15.0016 13.4398C14.7923 13.2805 14.6542 13.0451 14.6173 12.7847C14.5803 12.5243 14.6474 12.2598 14.8041 12.0485C14.9608 11.8372 15.1944 11.6962 15.4543 11.6559C16.002 11.5853 16.5552 11.5675 17.1063 11.6029M19.1313 8.81693C19.3861 8.81747 19.6311 8.91524 19.8162 9.09029C20.0014 9.26534 20.1127 9.50446 20.1275 9.75883C20.1423 10.0132 20.0595 10.2636 19.8959 10.459C19.7323 10.6543 19.5003 10.7798 19.2473 10.8099L19.1313 10.8169H18.4233C18.1685 10.8164 17.9235 10.7186 17.7384 10.5436C17.5533 10.3685 17.4419 10.1294 17.4271 9.87504C17.4123 9.62068 17.4952 9.37025 17.6587 9.17491C17.8223 8.97956 18.0543 8.85402 18.3073 8.82393L18.4233 8.81693H19.1313ZM15.9493 8.04993C16.1215 8.22213 16.2249 8.45123 16.2402 8.69425C16.2555 8.93728 16.1816 9.17753 16.0323 9.36993L15.9493 9.46393L14.8883 10.5249C14.7084 10.7043 14.4669 10.8084 14.2129 10.8162C13.959 10.8239 13.7116 10.7347 13.521 10.5667C13.3305 10.3987 13.211 10.1644 13.1869 9.91146C13.1628 9.65854 13.2359 9.40593 13.3913 9.20493L13.4743 9.11093L14.5343 8.05093C14.6272 7.95796 14.7375 7.8842 14.8589 7.83387C14.9803 7.78355 15.1104 7.75765 15.2418 7.75765C15.3732 7.75765 15.5034 7.78355 15.6248 7.83387C15.7462 7.8842 15.8565 7.95696 15.9493 8.04993ZM13.3623 2.78493C13.8103 4.13093 13.5703 5.60493 13.2903 6.63493C13.1227 7.2773 12.8916 7.90138 12.6003 8.49793C12.4819 8.7353 12.274 8.91591 12.0225 9.00002C11.7709 9.08413 11.4962 9.06485 11.2588 8.94643C11.0215 8.82801 10.8408 8.62015 10.7567 8.36857C10.6726 8.11699 10.6919 7.8423 10.8103 7.60493C11.043 7.12582 11.2272 6.62467 11.3603 6.10893C11.5873 5.27693 11.7013 4.37393 11.5263 3.63393L11.4653 3.41793C11.4217 3.29287 11.4034 3.1604 11.4115 3.02821C11.4195 2.89602 11.4537 2.76674 11.5121 2.64787C11.5705 2.52901 11.652 2.42293 11.7517 2.3358C11.8514 2.24866 11.9675 2.1822 12.0931 2.14028C12.2187 2.09836 12.3514 2.08182 12.4835 2.0916C12.6156 2.10138 12.7444 2.13731 12.8625 2.19728C12.9806 2.25725 13.0855 2.34008 13.1714 2.44096C13.2572 2.54184 13.3221 2.65876 13.3623 2.78493ZM18.7773 5.22293C18.9648 5.41046 19.0701 5.66477 19.0701 5.92993C19.0701 6.1951 18.9648 6.44941 18.7773 6.63693L18.0703 7.34393C17.9781 7.43944 17.8677 7.51563 17.7457 7.56804C17.6237 7.62044 17.4925 7.64803 17.3597 7.64918C17.2269 7.65034 17.0953 7.62504 16.9724 7.57476C16.8495 7.52447 16.7378 7.45022 16.6439 7.35633C16.55 7.26244 16.4758 7.15078 16.4255 7.02789C16.3752 6.90499 16.3499 6.77331 16.3511 6.64053C16.3522 6.50775 16.3798 6.37653 16.4322 6.25453C16.4846 6.13253 16.5608 6.02218 16.6563 5.92993L17.3633 5.22293C17.5509 5.03546 17.8052 4.93015 18.0703 4.93015C18.3355 4.93015 18.5898 5.03546 18.7773 5.22293Z" fill="#4E4C4C"/>
</svg>
