<svg width="25" height="24" viewBox="0 0 25 24" fill="none" xmlns="http://www.w3.org/2000/svg">
<path d="M12.332 5C11.222 5 10.332 5.89 10.332 7C10.332 8.11 11.222 9 12.332 9C13.442 9 14.332 8.11 14.332 7C14.332 5.89 13.442 5 12.332 5ZM22.332 1V6H20.332V4H4.33203V6H2.33203V1H4.33203V3H20.332V1H22.332ZM15.332 11.26V23H13.332V18H11.332V23H9.33203V11.26C7.26203 10.17 5.83203 8 5.83203 5.5V5H7.83203V5.5C7.83203 8 9.83203 10 12.332 10C14.832 10 16.832 8 16.832 5.5V5H18.832V5.5C18.832 8 17.402 10.17 15.332 11.26Z" fill="#4E4C4C"/>
</svg>
