<svg width="25" height="24" viewBox="0 0 25 24" fill="none" xmlns="http://www.w3.org/2000/svg">
<path d="M5.62891 20C5.48691 20 5.36791 19.952 5.27191 19.856C5.17591 19.76 5.12825 19.641 5.12891 19.499C5.12958 19.357 5.17725 19.2383 5.27191 19.143C5.36658 19.0477 5.48558 19 5.62891 19H6.66691V5.116C6.66691 4.67133 6.82525 4.291 7.14191 3.975C7.45858 3.659 7.83858 3.50067 8.28191 3.5H17.0519C17.4959 3.5 17.8759 3.65833 18.1919 3.975C18.5079 4.29167 18.6662 4.67167 18.6669 5.115V19H19.7059C19.8472 19 19.9659 19.048 20.0619 19.144C20.1579 19.24 20.2056 19.359 20.2049 19.501C20.2042 19.643 20.1566 19.7617 20.0619 19.857C19.9672 19.9523 19.8482 20 19.7049 20H5.62891ZM17.6669 19V5.116C17.6669 4.936 17.6092 4.78833 17.4939 4.673C17.3786 4.55767 17.2312 4.5 17.0519 4.5H13.5129V4.016C14.1309 4.08467 14.6442 4.35 15.0529 4.812C15.4616 5.274 15.6662 5.81233 15.6669 6.427V17.739C15.6669 18.1417 15.5279 18.4993 15.2499 18.812C14.9719 19.1247 14.6296 19.3033 14.2229 19.348V19H17.6669ZM11.6769 12.77C11.8896 12.77 12.0692 12.6933 12.2159 12.54C12.3626 12.3867 12.4359 12.2033 12.4359 11.99C12.4359 11.7767 12.3622 11.597 12.2149 11.451C12.0676 11.305 11.8849 11.2317 11.6669 11.231C11.4602 11.231 11.2802 11.3047 11.1269 11.452C10.9736 11.5993 10.8969 11.782 10.8969 12C10.8969 12.2067 10.9736 12.3867 11.1269 12.54C11.2802 12.6933 11.4636 12.77 11.6769 12.77Z" fill="#4E4C4C"/>
</svg>
