<svg width="19" height="24" viewBox="0 0 19 24" fill="none" xmlns="http://www.w3.org/2000/svg">
<path d="M6.29296 3.375C6.29296 1.51102 7.80397 0 9.66796 0C11.5319 0 13.043 1.51102 13.043 3.375C13.043 5.23898 11.5319 6.75 9.66796 6.75C7.80397 6.75 6.29296 5.23894 6.29296 3.375ZM18.2286 3.43936C17.6428 2.85356 16.6931 2.85356 16.1073 3.43936L12.0466 7.5H7.28924L3.2286 3.43936C2.64285 2.85356 1.69307 2.85356 1.10732 3.43936C0.52152 4.02516 0.52152 4.97489 1.10732 5.56069L5.54296 9.99628V22.5C5.54296 23.3284 6.21454 24 7.04296 24H7.79296C8.62138 24 9.29296 23.3284 9.29296 22.5V17.25H10.043V22.5C10.043 23.3284 10.7145 24 11.543 24H12.293C13.1214 24 13.793 23.3284 13.793 22.5V9.99628L18.2286 5.56064C18.8144 4.97484 18.8144 4.02516 18.2286 3.43936Z" fill="#4E4C4C"/>
</svg>
