<svg width="24" height="24" viewBox="0 0 24 24" fill="none" xmlns="http://www.w3.org/2000/svg">
<path d="M12 20C11.4 20 10.925 20.1667 10.575 20.5C10.225 20.8333 9.58334 21 8.65 21C7.71667 21 7.075 20.8333 6.725 20.5C6.375 20.1667 5.9 20 5.3 20C4.81667 20 4.45 20.1127 4.2 20.338C3.95 20.5633 3.55834 20.7423 3.025 20.875C2.75834 20.9417 2.521 20.8833 2.313 20.7C2.105 20.5167 2.00067 20.2833 2 20C1.99934 19.7167 2.09934 19.471 2.3 19.263C2.50067 19.055 2.72567 18.884 2.975 18.75C3.25834 18.6 3.55834 18.4373 3.875 18.262C4.19167 18.0867 4.66667 17.9993 5.3 18C6.23334 18 6.875 18.1667 7.225 18.5C7.575 18.8333 8.05 19 8.65 19C9.25 19 9.725 18.8333 10.075 18.5C10.425 18.1667 11.0667 18 12 18C12.9333 18 13.575 18.1667 13.925 18.5C14.275 18.8333 14.75 19 15.35 19C15.95 19 16.425 18.8333 16.775 18.5C17.125 18.1667 17.7667 18 18.7 18C19.3333 18 19.8083 18.0877 20.125 18.263C20.4417 18.4383 20.7417 18.6007 21.025 18.75C21.275 18.8833 21.5 19.0543 21.7 19.263C21.9 19.4717 22 19.7173 22 20C22 20.2827 21.896 20.516 21.688 20.7C21.48 20.884 21.2423 20.9423 20.975 20.875C20.4417 20.7417 20.05 20.5627 19.8 20.338C19.55 20.1133 19.1833 20.0007 18.7 20C18.1 20 17.625 20.1667 17.275 20.5C16.925 20.8333 16.2833 21 15.35 21C14.4167 21 13.775 20.8333 13.425 20.5C13.075 20.1667 12.6 20 12 20ZM12 15.5C11.3667 15.5 10.8957 15.6667 10.587 16C10.2783 16.3333 9.63267 16.5 8.65 16.5C7.66734 16.5 7.013 16.3333 6.687 16C6.361 15.6667 5.89867 15.5 5.3 15.5C4.81667 15.5 4.45 15.6127 4.2 15.838C3.95 16.0633 3.55834 16.2423 3.025 16.375C2.75834 16.4417 2.521 16.3833 2.313 16.2C2.105 16.0167 2.00067 15.7833 2 15.5C1.99934 15.2167 2.09934 14.971 2.3 14.763C2.50067 14.555 2.72567 14.384 2.975 14.25C3.25834 14.1 3.55834 13.9373 3.875 13.762C4.19167 13.5867 4.66667 13.4993 5.3 13.5C6.23334 13.5 6.87934 13.6667 7.238 14C7.59667 14.3333 8.06734 14.5 8.65 14.5C9.25 14.5 9.725 14.3333 10.075 14C10.425 13.6667 11.0667 13.5 12 13.5C12.9333 13.5 13.575 13.6667 13.925 14C14.275 14.3333 14.75 14.5 15.35 14.5C15.95 14.5 16.425 14.3333 16.775 14C17.125 13.6667 17.7667 13.5 18.7 13.5C19.3333 13.5 19.8083 13.5877 20.125 13.763C20.4417 13.9383 20.7417 14.1007 21.025 14.25C21.275 14.3833 21.5 14.5543 21.7 14.763C21.9 14.9717 22 15.2173 22 15.5C22 15.7827 21.896 16.016 21.688 16.2C21.48 16.384 21.2423 16.4423 20.975 16.375C20.4417 16.2417 20.05 16.0627 19.8 15.838C19.55 15.6133 19.1833 15.5007 18.7 15.5C18.1 15.5 17.6373 15.6667 17.312 16C16.9867 16.3333 16.3327 16.5 15.35 16.5C14.4 16.5 13.7543 16.3333 13.413 16C13.0717 15.6667 12.6007 15.5 12 15.5ZM6.9 11.4L10.225 8.075L9.225 7.075C8.80834 6.65833 8.37934 6.329 7.938 6.087C7.49667 5.845 6.99234 5.68267 6.425 5.6C6.09167 5.53333 5.80434 5.375 5.563 5.125C5.32167 4.875 5.20067 4.58333 5.2 4.25C5.2 3.9 5.325 3.604 5.575 3.362C5.825 3.12 6.11667 3.016 6.45 3.05C7.35 3.13333 8.125 3.321 8.775 3.613C9.425 3.905 10.0667 4.36733 10.7 5L17.1 11.4C16.8167 11.5833 16.5417 11.7293 16.275 11.838C16.0083 11.9467 15.7 12.0007 15.35 12C14.75 12 14.275 11.8333 13.925 11.5C13.575 11.1667 12.9333 11 12 11C11.0667 11 10.425 11.1667 10.075 11.5C9.725 11.8333 9.25 12 8.65 12C8.3 12 7.99167 11.946 7.725 11.838C7.45834 11.73 7.18334 11.584 6.9 11.4ZM16.7 3C17.4 3 17.9917 3.246 18.475 3.738C18.9583 4.23 19.2 4.81733 19.2 5.5C19.2 6.2 18.9583 6.79167 18.475 7.275C17.9917 7.75833 17.4 8 16.7 8C16 8 15.4083 7.75833 14.925 7.275C14.4417 6.79167 14.2 6.2 14.2 5.5C14.2 4.81667 14.4417 4.229 14.925 3.737C15.4083 3.245 16 2.99933 16.7 3Z" fill="#4E4C4C"/>
</svg>
