<svg width="24" height="24" viewBox="0 0 24 24" fill="none" xmlns="http://www.w3.org/2000/svg">
<path d="M5.039 19.346C4.89633 19.346 4.77733 19.2983 4.682 19.203C4.586 19.1076 4.538 18.9886 4.538 18.846V17.846H4C3.436 17.846 2.96167 17.6536 2.577 17.269C2.19233 16.8843 2 16.41 2 15.846V10.846C2 10.4246 2.14467 10.0693 2.434 9.77998C2.72267 9.49065 3.078 9.34598 3.5 9.34598C3.922 9.34598 4.27733 9.49065 4.566 9.77998C4.85533 10.0693 5 10.4246 5 10.846V14.346H19V10.846C19 10.4246 19.1447 10.0693 19.434 9.77998C19.7227 9.49065 20.078 9.34598 20.5 9.34598C20.922 9.34598 21.2773 9.49065 21.566 9.77998C21.8553 10.0693 22 10.4246 22 10.846V15.846C22 16.41 21.8077 16.8843 21.423 17.269C21.0383 17.6536 20.564 17.846 20 17.846H19.462V18.846C19.462 18.9753 19.4173 19.091 19.328 19.193C19.2387 19.295 19.1293 19.346 19 19.346C18.858 19.346 18.739 19.2983 18.643 19.203C18.5477 19.107 18.5 18.988 18.5 18.846V17.846H5.539V18.846C5.539 18.9886 5.491 19.1076 5.395 19.203C5.29967 19.2983 5.18167 19.346 5.039 19.346ZM6 13.346V10.846C6 10.2246 5.81367 9.66998 5.441 9.18198C5.069 8.69398 4.58867 8.41531 4 8.34598V7.23098C4 6.66698 4.19233 6.19265 4.577 5.80798C4.96167 5.42331 5.436 5.23065 6 5.22998H18C18.564 5.22998 19.0383 5.42231 19.423 5.80698C19.8077 6.19165 20 6.66598 20 7.22998V8.34498C19.4073 8.41165 18.926 8.68765 18.556 9.17298C18.1853 9.65898 18 10.2166 18 10.846V13.346H6Z" fill="#4E4C4C"/>
</svg>
