<svg width="20" height="21" viewBox="0 0 20 21" fill="none" xmlns="http://www.w3.org/2000/svg">
<path d="M3.75253 13.8423L10 7.75234L16.2475 13.8423C16.3591 13.9514 16.509 14.0124 16.665 14.0124C16.8211 14.0124 16.9709 13.9514 17.0825 13.8423C17.1366 13.7894 17.1795 13.7262 17.2088 13.6564C17.2381 13.5867 17.2532 13.5118 17.2532 13.4361C17.2532 13.3604 17.2381 13.2855 17.2088 13.2158C17.1795 13.146 17.1366 13.0828 17.0825 13.0298L10.4363 6.54984C10.3196 6.43607 10.163 6.3724 10 6.3724C9.83704 6.3724 9.68049 6.43607 9.56378 6.54984L2.91753 13.0286C2.8631 13.0816 2.81983 13.1449 2.7903 13.2149C2.76076 13.2849 2.74554 13.3601 2.74554 13.4361C2.74554 13.5121 2.76076 13.5873 2.7903 13.6572C2.81983 13.7272 2.8631 13.7906 2.91753 13.8436C3.02914 13.9526 3.17899 14.0137 3.33503 14.0137C3.49106 14.0137 3.64091 13.9526 3.75253 13.8436V13.8423Z" fill="#343434"/>
</svg>
