<svg width="20" height="21" viewBox="0 0 20 21" fill="none" xmlns="http://www.w3.org/2000/svg">
<path d="M16.2475 7.15766L9.99997 13.2477L3.75247 7.15766C3.64086 7.04862 3.49101 6.98758 3.33497 6.98758C3.17894 6.98758 3.02909 7.04862 2.91747 7.15766C2.86343 7.21062 2.82049 7.27382 2.79118 7.34358C2.76186 7.41334 2.74677 7.48824 2.74677 7.56391C2.74677 7.63958 2.76186 7.71448 2.79118 7.78424C2.82049 7.854 2.86343 7.9172 2.91747 7.97016L9.56372 14.4502C9.68044 14.5639 9.83698 14.6276 9.99997 14.6276C10.163 14.6276 10.3195 14.5639 10.4362 14.4502L17.0825 7.97141C17.1369 7.91841 17.1802 7.85505 17.2097 7.78506C17.2392 7.71507 17.2545 7.63988 17.2545 7.56391C17.2545 7.48794 17.2392 7.41274 17.2097 7.34276C17.1802 7.27277 17.1369 7.2094 17.0825 7.15641C16.9709 7.04737 16.821 6.98633 16.665 6.98633C16.5089 6.98633 16.3591 7.04737 16.2475 7.15641V7.15766Z" fill="#343434"/>
</svg>
