<svg width="14" height="14" viewBox="0 0 14 14" fill="none" xmlns="http://www.w3.org/2000/svg">
<path d="M6.99988 12.6875C9.18738 9.625 10.9374 7 10.9374 5.25C10.9374 4.20571 10.5225 3.20419 9.78411 2.46577C9.04569 1.72734 8.04417 1.3125 6.99988 1.3125C5.95559 1.3125 4.95407 1.72734 4.21564 2.46577C3.47722 3.20419 3.06238 4.20571 3.06238 5.25C3.06238 7 4.81238 9.625 6.99988 12.6875Z" stroke="#1A3D8F"/>
<path d="M8.74988 5.25C8.74988 5.71413 8.5655 6.15925 8.23731 6.48744C7.90913 6.81563 7.46401 7 6.99988 7C6.53575 7 6.09063 6.81563 5.76244 6.48744C5.43425 6.15925 5.24988 5.71413 5.24988 5.25C5.24988 4.78587 5.43425 4.34075 5.76244 4.01256C6.09063 3.68437 6.53575 3.5 6.99988 3.5C7.46401 3.5 7.90913 3.68437 8.23731 4.01256C8.5655 4.34075 8.74988 4.78587 8.74988 5.25Z" stroke="#1A3D8F"/>
</svg>
