<svg width="30" height="30" viewBox="0 0 30 30" fill="none" xmlns="http://www.w3.org/2000/svg">
<path d="M26.5625 15.0004H11.1187M5.6675 15.0004H3.4375M5.6675 15.0004C5.6675 14.2776 5.9546 13.5845 6.46563 13.0735C6.97667 12.5624 7.66978 12.2754 8.3925 12.2754C9.11521 12.2754 9.80833 12.5624 10.3194 13.0735C10.8304 13.5845 11.1175 14.2776 11.1175 15.0004C11.1175 15.7231 10.8304 16.4162 10.3194 16.9272C9.80833 17.4383 9.11521 17.7254 8.3925 17.7254C7.66978 17.7254 6.97667 17.4383 6.46563 16.9272C5.9546 16.4162 5.6675 15.7231 5.6675 15.0004ZM26.5625 23.2591H19.3775M19.3775 23.2591C19.3775 23.982 19.0897 24.6759 18.5786 25.187C18.0674 25.6982 17.3741 25.9854 16.6512 25.9854C15.9285 25.9854 15.2354 25.697 14.7244 25.186C14.2133 24.6749 13.9262 23.9818 13.9262 23.2591M19.3775 23.2591C19.3775 22.5362 19.0897 21.8436 18.5786 21.3324C18.0674 20.8213 17.3741 20.5341 16.6512 20.5341C15.9285 20.5341 15.2354 20.8212 14.7244 21.3322C14.2133 21.8433 13.9262 22.5364 13.9262 23.2591M13.9262 23.2591H3.4375M26.5625 6.7416H22.6812M17.23 6.7416H3.4375M17.23 6.7416C17.23 6.01889 17.5171 5.32577 18.0281 4.81474C18.5392 4.3037 19.2323 4.0166 19.955 4.0166C20.3129 4.0166 20.6672 4.08709 20.9978 4.22403C21.3284 4.36097 21.6288 4.5617 21.8819 4.81474C22.1349 5.06778 22.3356 5.36818 22.4726 5.69879C22.6095 6.0294 22.68 6.38375 22.68 6.7416C22.68 7.09945 22.6095 7.4538 22.4726 7.78441C22.3356 8.11503 22.1349 8.41543 21.8819 8.66847C21.6288 8.92151 21.3284 9.12223 20.9978 9.25917C20.6672 9.39612 20.3129 9.4666 19.955 9.4666C19.2323 9.4666 18.5392 9.1795 18.0281 8.66847C17.5171 8.15743 17.23 7.46432 17.23 6.7416Z" stroke="#1A3D8F" stroke-miterlimit="10" stroke-linecap="round"/>
</svg>
