<svg width="16" height="16" viewBox="0 0 16 16" fill="none" xmlns="http://www.w3.org/2000/svg">
<path d="M14.2649 13.7342L11.0537 10.5229C11.9694 9.46984 12.4405 8.10233 12.3676 6.70867C12.2947 5.31501 11.6836 4.00409 10.663 3.05225C9.64244 2.1004 8.29216 1.58198 6.89681 1.60629C5.50147 1.63059 4.17006 2.19571 3.18325 3.18252C2.19644 4.16933 1.63132 5.50073 1.60702 6.89608C1.58272 8.29143 2.10113 9.64171 3.05298 10.6623C4.00483 11.6829 5.31575 12.294 6.7094 12.3669C8.10306 12.4398 9.47057 11.9687 10.5237 11.0529L13.7349 14.2642C13.806 14.3304 13.9 14.3665 13.9972 14.3648C14.0943 14.3631 14.187 14.3237 14.2557 14.255C14.3244 14.1863 14.3638 14.0936 14.3655 13.9965C14.3672 13.8993 14.3312 13.8053 14.2649 13.7342ZM2.37492 6.99919C2.37492 6.08445 2.64617 5.19025 3.15437 4.42968C3.66258 3.6691 4.3849 3.0763 5.23001 2.72625C6.07512 2.37619 7.00505 2.2846 7.90221 2.46306C8.79938 2.64151 9.62347 3.082 10.2703 3.72882C10.9171 4.37564 11.3576 5.19973 11.5361 6.0969C11.7145 6.99406 11.6229 7.92399 11.2729 8.7691C10.9228 9.61421 10.33 10.3365 9.56943 10.8447C8.80886 11.3529 7.91466 11.6242 6.99992 11.6242C5.77375 11.6227 4.59823 11.1349 3.7312 10.2679C2.86416 9.40088 2.37641 8.22536 2.37492 6.99919Z" fill="#838383"/>
</svg>
